<svg width="35" height="35" viewBox="0 0 35 35" fill="none" xmlns="http://www.w3.org/2000/svg">
<path d="M13.4784 0.11226C12.7734 0.393235 12.4529 1.01762 12.4529 2.07909C12.4529 2.79713 12.3888 3.07811 12.2446 3.07811C11.812 3.07811 9.13629 4.46737 8.11086 5.21664L7.05338 5.99713L6.26828 5.54444C5.33898 5.02932 4.63399 4.98249 4.07321 5.41957C3.86492 5.59127 2.82346 7.16786 1.79802 8.93176C-0.509206 12.8498 -0.525228 13.0059 1.42951 14.1454L2.03836 14.4888L1.91018 15.4566C1.76598 16.7054 1.76598 18.5317 1.91018 19.6556L2.03836 20.5298L1.42951 20.8888C0.484184 21.4351 0.131691 21.8254 0.019534 22.3873C-0.0766005 22.8556 0.131691 23.2615 1.79802 26.1025C2.82346 27.8664 3.86492 29.4429 4.07321 29.6146C4.63399 30.0517 5.33898 30.0049 6.26828 29.4898L7.05338 29.0371L8.11086 29.8176C9.10425 30.5512 11.812 31.9561 12.2286 31.9561C12.3568 31.9561 12.4369 32.3307 12.485 33.0488C12.533 33.9854 12.6132 34.2039 12.9817 34.5785L13.4143 35H17.5H21.5857L22.0183 34.5785C22.3868 34.2039 22.467 33.9854 22.515 33.0488C22.5631 32.2995 22.6432 31.9561 22.7874 31.9561C23.188 31.9561 25.9438 30.5044 26.9372 29.7864L27.9466 29.0371L28.7317 29.4898C29.645 30.0049 30.366 30.0517 30.9108 29.6303C31.1191 29.4585 32.1285 27.9288 33.1379 26.2273C35.4451 22.3093 35.4772 21.9815 33.6666 20.9512L32.9616 20.5454L33.0898 19.5776C33.234 18.3444 33.234 16.6898 33.0898 15.4566L32.9616 14.4888L33.5705 14.1454C34.5158 13.5991 34.8683 13.2088 34.9805 12.6469C35.0766 12.1786 34.8683 11.7727 33.202 8.91615C32.1605 7.15225 31.1351 5.57566 30.9108 5.41957C30.366 4.98249 29.661 5.02932 28.7317 5.54444L27.9466 5.99713L26.9372 5.24786C25.9438 4.52981 23.188 3.07811 22.7874 3.07811C22.6432 3.07811 22.5631 2.73469 22.515 1.98543C22.467 1.04884 22.3868 0.830307 22.0183 0.455674L21.5857 0.034211L17.6923 0.00299153C15.5613 -0.0126182 13.6546 0.034211 13.4784 0.11226ZM21.4255 2.32884C21.4736 2.98445 21.5857 3.59323 21.6658 3.67128C21.762 3.73372 22.3548 3.99908 23.0117 4.24884C24.0532 4.63908 26.072 5.82542 27.3858 6.85566L27.8345 7.19908L28.5074 6.82444C28.8919 6.62152 29.3886 6.34054 29.629 6.21566C30.0135 5.99713 30.0936 5.99713 30.3019 6.20005C30.8146 6.71517 33.939 12.1786 33.8909 12.4752C33.8589 12.6781 33.4744 13.0215 32.8815 13.3805L31.9202 13.9425L32.0003 14.723C32.0484 15.1444 32.0804 16.3932 32.0804 17.5171C32.0804 18.6254 32.0484 19.8898 32.0003 20.3112L31.9202 21.0917L32.8815 21.6537C33.4744 22.0127 33.8589 22.3561 33.8909 22.559C33.939 22.9025 30.6063 28.6468 30.2058 28.8966C30.0456 28.9903 29.677 28.8654 28.9721 28.4595C27.8184 27.8039 27.6742 27.7883 27.2577 28.2254C26.6808 28.8498 24.1974 30.3483 23.0117 30.7854C22.3548 31.0351 21.762 31.3005 21.6658 31.3629C21.5857 31.441 21.4736 32.0498 21.4255 32.7054L21.3454 33.9073H17.5H13.6546L13.5745 32.7054C13.5264 32.0498 13.4303 31.441 13.3342 31.3629C13.2541 31.2849 12.8215 31.0976 12.3728 30.9415C11.2513 30.5668 9.7131 29.7239 8.65562 28.9434C7.05338 27.7571 7.2136 27.7883 6.05999 28.4439C5.33898 28.8654 4.95444 28.9903 4.79422 28.8966C4.39366 28.6468 1.06099 22.9025 1.10906 22.559C1.1411 22.3561 1.52564 22.0127 2.11847 21.6537L3.07982 21.0917L2.99971 20.3893C2.90357 19.4839 2.90357 15.7064 2.99971 14.723L3.07982 13.9425L2.11847 13.3805C1.52564 13.0215 1.1411 12.6781 1.10906 12.4752C1.06099 12.1317 4.39366 6.38737 4.79422 6.13761C4.95444 6.04396 5.32296 6.16883 6.02794 6.57469C6.57271 6.88688 7.08542 7.13664 7.14951 7.13664C7.2136 7.13664 7.72632 6.79322 8.27108 6.35615C9.44072 5.43518 10.8988 4.62347 12.2126 4.15518C12.7413 3.96786 13.2701 3.7025 13.3822 3.56201C13.4944 3.43713 13.5745 2.89079 13.5745 2.29762C13.5745 1.72006 13.6226 1.20494 13.6867 1.1425C13.7508 1.09567 15.4972 1.06445 17.5641 1.08006L21.3454 1.12689L21.4255 2.32884Z" fill="#00DF5E"/>
<path d="M21.1532 5.0605C20.6725 5.23221 20.9449 5.74733 21.6659 6.05952C22.5472 6.43415 22.9317 6.40293 22.9958 5.91903C23.0439 5.63806 22.9157 5.51318 22.3549 5.26342C21.6499 4.95123 21.4897 4.92001 21.1532 5.0605Z" fill="#00DF5E"/>
<path d="M24.5018 6.69961C24.3897 6.80887 24.3096 6.94936 24.3096 7.0118C24.3096 7.08985 25.0947 7.90155 26.056 8.82253C27.6422 10.3523 27.8665 10.6333 28.6196 12.1318C29.0682 13.0372 29.4367 13.8801 29.4367 14.0362C29.4367 14.4732 29.8854 14.8167 30.2539 14.6293C30.6545 14.4108 30.6384 14.2079 30.0616 12.7562C29.2124 10.5864 27.4339 8.2918 25.6074 7.0118C24.8223 6.44985 24.7742 6.43424 24.5018 6.69961Z" fill="#00DF5E"/>
<path d="M15.1767 7.38643C12.9656 7.85472 10.5943 9.29081 9.20031 11.0235C4.9063 16.3464 6.73286 23.9952 12.9656 26.883C19.9834 30.1298 28.1548 25.0879 28.1548 17.5171C28.1548 10.9298 21.81 5.98155 15.1767 7.38643ZM20.3359 8.54155C22.3547 9.15032 24.4056 10.6801 25.6073 12.5064C27.6421 15.5503 27.6421 19.484 25.6073 22.5435C24.3896 24.3854 22.3547 25.884 20.2237 26.5396C18.6696 27.0079 16.3303 27.0079 14.7761 26.524C11.6998 25.603 9.20031 23.1679 8.25499 20.1708C7.7583 18.6566 7.7583 16.3776 8.23897 14.8635C9.31247 11.5074 12.3728 8.85374 15.8656 8.22935C17.0353 8.02642 19.1182 8.16691 20.3359 8.54155Z" fill="#00DF5E"/>
<path d="M13.3021 14.9103C13.2059 14.9728 12.7093 16.0967 12.2126 17.4079C11.4595 19.3591 11.3313 19.8274 11.4915 20.0147C11.812 20.3893 12.1324 20.2801 12.3888 19.7025L12.6131 19.1562H13.8308C15.0165 19.1562 15.0325 19.1562 15.1927 19.6089C15.2889 19.8586 15.4651 20.1084 15.5933 20.1552C15.9137 20.2801 16.2983 20.0928 16.2983 19.8118C16.2983 19.562 14.8082 15.5972 14.5198 15.0664C14.3596 14.7855 13.6706 14.6918 13.3021 14.9103ZM14.2474 17.0957C14.4076 17.5015 14.5358 17.8762 14.5358 17.9386C14.5358 18.0167 14.2154 18.0635 13.8148 18.0635C13.4142 18.0635 13.0938 18.0323 13.0938 17.9854C13.0938 17.7357 13.7828 16.1903 13.8629 16.2684C13.9109 16.3152 14.0872 16.6898 14.2474 17.0957Z" fill="#00DF5E"/>
<path d="M17.1317 14.9726C17.0035 15.0975 16.9395 15.8936 16.9395 17.5326C16.9395 19.4995 16.9875 19.9365 17.1958 20.1082C17.6124 20.4517 17.9809 20.0926 18.029 19.2497L18.077 18.5317H19.0544C20.208 18.5317 20.8329 18.2195 21.2014 17.4702C21.65 16.5336 21.2014 15.4097 20.208 15.0039C19.5511 14.7385 17.4041 14.7073 17.1317 14.9726ZM20.1119 16.0653C20.3843 16.3307 20.3522 16.9707 20.0318 17.3141C19.8395 17.517 19.5511 17.5951 18.9102 17.5951H18.061V16.7365V15.878H18.9903C19.503 15.878 19.9997 15.9561 20.1119 16.0653Z" fill="#00DF5E"/>
<path d="M22.2587 14.9728C22.1305 15.0977 22.0664 15.8938 22.0664 17.5328C22.0664 19.9991 22.1625 20.3737 22.7714 20.1552C22.9957 20.0772 23.0278 19.7181 23.0278 17.5172C23.0278 15.3474 22.9957 14.9572 22.7714 14.8791C22.4509 14.7542 22.483 14.7542 22.2587 14.9728Z" fill="#00DF5E"/>
<path d="M5.75546 23.2459C5.48308 23.5113 5.51512 23.6362 6.01182 24.4011C6.31625 24.885 6.55658 25.0879 6.81294 25.0879C7.37373 25.0879 7.40577 24.6976 6.89305 23.8859C6.39636 23.1055 6.09193 22.9181 5.75546 23.2459Z" fill="#00DF5E"/>
<path d="M8.07855 26.2897C7.69401 26.6488 8.30286 27.3044 10.0974 28.5063C12.2764 29.958 16.5384 31.0819 16.8428 30.2858C17.003 29.88 16.7146 29.7239 15.1444 29.4273C13.3179 29.0683 10.8184 27.9288 9.6167 26.8985C8.86364 26.2273 8.3349 26.0244 8.07855 26.2897Z" fill="#00DF5E"/>
</svg>
