<svg width="64" height="29" viewBox="0 0 64 29" fill="none" xmlns="http://www.w3.org/2000/svg">
<path d="M11.48 0.199999H17.08L24.92 25.8L27.88 26.6V29H17.36V26.6L20.92 25.8L18.96 19.16H9.6L7.64 25.8L11.24 26.6V29H0.68V26.6L3.64 25.8L11.48 0.199999ZM10.56 15.84H17.96L14.28 3.28L10.56 15.84ZM40.2825 26.6V29H28.8825V26.6L32.6025 25.8V3.4L28.8825 2.6V0.199999H40.2825C42.5492 0.199999 44.3358 0.453332 45.6425 0.959999C46.9758 1.46667 47.9758 2.14667 48.6425 3C49.3092 3.85333 49.7358 4.85333 49.9225 6C50.1092 7.12 50.2025 8.32 50.2025 9.6C50.2025 10.88 50.0692 12.0933 49.8025 13.24C49.5625 14.36 49.0825 15.36 48.3625 16.24C47.6425 17.0933 46.6292 17.7733 45.3225 18.28C44.0425 18.76 42.3625 19 40.2825 19H36.5625V25.8L40.2825 26.6ZM39.6425 16C41.0292 16 42.1492 15.84 43.0025 15.52C43.8558 15.2 44.5092 14.76 44.9625 14.2C45.4158 13.64 45.7225 12.9867 45.8825 12.24C46.0425 11.4667 46.1225 10.64 46.1225 9.76C46.1225 8.8 46.0425 7.92 45.8825 7.12C45.7225 6.29333 45.4025 5.6 44.9225 5.04C44.4692 4.45333 43.8158 4 42.9625 3.68C42.1092 3.36 41.0025 3.2 39.6425 3.2H36.5625V16H39.6425ZM63.9153 2.6L60.1953 3.4V25.8L63.9153 26.6V29H52.5153V26.6L56.2353 25.8V3.4L52.5153 2.6V0.199999H63.9153V2.6Z" fill="black"/>
</svg>
