<svg width="15" height="16" viewBox="0 0 15 16" fill="none" xmlns="http://www.w3.org/2000/svg">
<path d="M0.816733 1.11033C0.634107 1.17702 0.387959 1.35041 0.260915 1.49046L0.0306481 1.7372L0.00682739 7.56577C-0.00905311 13.1876 -0.0090531 13.3943 0.141812 13.6411C0.475302 14.1879 0.856434 14.3213 2.13481 14.3213H3.08764V14.6681C3.08764 15.0482 3.28615 15.4817 3.5323 15.6684C3.96107 15.9885 3.96901 15.9885 9.01901 15.9885C11.8934 15.9885 13.8784 15.9619 14.0452 15.9218C14.3707 15.8485 14.7916 15.515 14.9107 15.2349C15.0298 14.9749 15.0298 4.13132 14.9107 3.87123C14.6804 3.35773 14.1325 3.12432 13.1559 3.11766H12.4571V2.5308C12.4571 1.91059 12.3142 1.53047 11.9966 1.29706C11.5996 0.996962 11.5043 0.990294 6.18434 0.990294C1.42813 0.983625 1.1264 0.990294 0.816733 1.11033ZM11.4884 1.58382C11.6314 1.65718 11.7822 1.79722 11.8219 1.89059C11.8696 1.99729 11.9013 4.178 11.9013 7.65247C11.9013 11.1269 11.8696 13.3076 11.8219 13.4144C11.7822 13.5077 11.6314 13.6478 11.4884 13.7211C11.2343 13.8545 11.1152 13.8545 6.12082 13.8412L1.0073 13.8212L0.777031 13.6011L0.546764 13.3877V7.65914V1.93727L0.713509 1.75721C0.808792 1.65718 0.959657 1.54381 1.05494 1.51713C1.14228 1.48379 3.47672 1.45711 6.22404 1.45711C11.0914 1.45044 11.2343 1.45711 11.4884 1.58382ZM14.2119 3.83789L14.4422 4.05129V9.51975C14.4422 13.3076 14.4184 15.0282 14.3549 15.1416C14.3072 15.2283 14.1722 15.3483 14.0452 15.4083C13.8467 15.5084 13.3544 15.5217 9.01107 15.5217H4.19928L3.94519 15.3283C3.7308 15.1683 3.6911 15.0882 3.65934 14.7348L3.62758 14.328L7.55006 14.308L11.4725 14.288L11.814 14.1012C12.0284 13.9812 12.211 13.8078 12.3063 13.6344C12.4492 13.3677 12.4571 13.1209 12.4571 8.46607V3.57114L13.2194 3.59781C13.9658 3.61782 13.9817 3.62449 14.2119 3.83789Z" fill="#00DF5E"/>
<path d="M2.88124 4.21808C2.84948 4.27143 2.84948 4.36479 2.88124 4.41814C2.92094 4.50484 3.34178 4.51817 6.23997 4.50484L9.55899 4.48483V4.31811V4.15139L6.23997 4.13138C3.34178 4.11804 2.92094 4.13138 2.88124 4.21808Z" fill="#00DF5E"/>
<path d="M2.94478 6.04525C2.88126 6.07192 2.84949 6.17195 2.86538 6.25865L2.8892 6.4187H6.2241H9.559L9.58282 6.25865C9.5987 6.17195 9.56694 6.07192 9.50342 6.04525C9.36844 5.97189 3.07976 5.97189 2.94478 6.04525Z" fill="#00DF5E"/>
<path d="M2.87336 8.02601C2.84954 8.08603 2.85748 8.18606 2.90512 8.24608C2.97658 8.33945 3.33389 8.35278 6.22414 8.35278C9.11439 8.35278 9.4717 8.33945 9.54317 8.24608C9.59081 8.18606 9.59875 8.08603 9.57493 8.02601C9.52729 7.93265 9.20968 7.91931 6.22414 7.91931C3.23861 7.91931 2.921 7.93265 2.87336 8.02601Z" fill="#00DF5E"/>
<path d="M2.94478 9.84652C2.88126 9.87319 2.84949 9.97322 2.86538 10.0599L2.8892 10.22H4.79486H6.70051L6.72434 10.0599C6.74022 9.97322 6.70845 9.87319 6.64493 9.84652C6.58935 9.81317 5.75563 9.7865 4.79486 9.7865C3.83409 9.7865 3.00036 9.81317 2.94478 9.84652Z" fill="#00DF5E"/>
</svg>
