<svg width="70" height="20" viewBox="0 0 70 20" fill="none" xmlns="http://www.w3.org/2000/svg">
<path d="M1.60742 0.78125H4.08789L7.74023 11.2207L11.3926 0.78125H13.873L8.73633 15H6.74414L1.60742 0.78125ZM0.269531 0.78125H2.74023L3.18945 10.957V15H0.269531V0.78125ZM12.7402 0.78125H15.2207V15H12.291V10.957L12.7402 0.78125ZM23.3164 12.6172V7.91016C23.3164 7.57161 23.2611 7.2819 23.1504 7.04102C23.0397 6.79362 22.8672 6.60156 22.6328 6.46484C22.4049 6.32812 22.1087 6.25977 21.7441 6.25977C21.4316 6.25977 21.1615 6.3151 20.9336 6.42578C20.7057 6.52995 20.5299 6.68294 20.4062 6.88477C20.2826 7.08008 20.2207 7.3112 20.2207 7.57812H17.4082C17.4082 7.12891 17.5124 6.70247 17.7207 6.29883C17.929 5.89518 18.2318 5.54036 18.6289 5.23438C19.026 4.92188 19.498 4.67773 20.0449 4.50195C20.5983 4.32617 21.2168 4.23828 21.9004 4.23828C22.7207 4.23828 23.4499 4.375 24.0879 4.64844C24.7259 4.92188 25.2272 5.33203 25.5918 5.87891C25.9629 6.42578 26.1484 7.10938 26.1484 7.92969V12.4512C26.1484 13.0306 26.1842 13.5059 26.2559 13.877C26.3275 14.2415 26.4316 14.5605 26.5684 14.834V15H23.7266C23.5898 14.7135 23.4857 14.3555 23.4141 13.9258C23.349 13.4896 23.3164 13.0534 23.3164 12.6172ZM23.6875 8.56445L23.707 10.1562H22.1348C21.7637 10.1562 21.4414 10.1986 21.168 10.2832C20.8945 10.3678 20.6699 10.4883 20.4941 10.6445C20.3184 10.7943 20.1882 10.9701 20.1035 11.1719C20.0254 11.3737 19.9863 11.5951 19.9863 11.8359C19.9863 12.0768 20.0417 12.2949 20.1523 12.4902C20.263 12.679 20.4225 12.8288 20.6309 12.9395C20.8392 13.0436 21.0833 13.0957 21.3633 13.0957C21.7865 13.0957 22.1543 13.0111 22.4668 12.8418C22.7793 12.6725 23.0202 12.4642 23.1895 12.2168C23.3652 11.9694 23.4564 11.735 23.4629 11.5137L24.2051 12.7051C24.1009 12.972 23.9577 13.2487 23.7754 13.5352C23.5996 13.8216 23.375 14.0918 23.1016 14.3457C22.8281 14.5931 22.4993 14.7982 22.1152 14.9609C21.7311 15.1172 21.2754 15.1953 20.748 15.1953C20.0775 15.1953 19.4688 15.0618 18.9219 14.7949C18.3815 14.5215 17.9518 14.1471 17.6328 13.6719C17.3203 13.1901 17.1641 12.6432 17.1641 12.0312C17.1641 11.4779 17.2682 10.9863 17.4766 10.5566C17.6849 10.127 17.9909 9.76562 18.3945 9.47266C18.8047 9.17318 19.3158 8.94857 19.9277 8.79883C20.5397 8.64258 21.2493 8.56445 22.0566 8.56445H23.6875ZM31.2852 4.43359V15H28.4629V4.43359H31.2852ZM28.2871 1.67969C28.2871 1.26953 28.4303 0.93099 28.7168 0.664062C29.0033 0.397135 29.3874 0.263672 29.8691 0.263672C30.3444 0.263672 30.7253 0.397135 31.0117 0.664062C31.3047 0.93099 31.4512 1.26953 31.4512 1.67969C31.4512 2.08984 31.3047 2.42839 31.0117 2.69531C30.7253 2.96224 30.3444 3.0957 29.8691 3.0957C29.3874 3.0957 29.0033 2.96224 28.7168 2.69531C28.4303 2.42839 28.2871 2.08984 28.2871 1.67969ZM36.5781 0V15H33.7559V0H36.5781ZM45.5918 4.43359H48.1406V14.6484C48.1406 15.612 47.9258 16.429 47.4961 17.0996C47.0729 17.7767 46.4805 18.2878 45.7188 18.6328C44.957 18.9844 44.0716 19.1602 43.0625 19.1602C42.6198 19.1602 42.151 19.1016 41.6562 18.9844C41.168 18.8672 40.6992 18.6849 40.25 18.4375C39.8073 18.1901 39.4362 17.8776 39.1367 17.5L40.377 15.8398C40.7025 16.2174 41.0801 16.5104 41.5098 16.7188C41.9395 16.9336 42.4147 17.041 42.9355 17.041C43.4434 17.041 43.873 16.9466 44.2246 16.7578C44.5762 16.5755 44.8464 16.3053 45.0352 15.9473C45.224 15.5957 45.3184 15.1693 45.3184 14.668V6.875L45.5918 4.43359ZM38.4824 9.84375V9.63867C38.4824 8.83138 38.5801 8.09896 38.7754 7.44141C38.9772 6.77734 39.2604 6.20768 39.625 5.73242C39.9961 5.25716 40.4453 4.88932 40.9727 4.62891C41.5 4.36849 42.0957 4.23828 42.7598 4.23828C43.4629 4.23828 44.0521 4.36849 44.5273 4.62891C45.0026 4.88932 45.3932 5.26042 45.6992 5.74219C46.0052 6.21745 46.2428 6.7806 46.4121 7.43164C46.5879 8.07617 46.7246 8.78255 46.8223 9.55078V10C46.7246 10.7357 46.5781 11.4193 46.3828 12.0508C46.1875 12.6823 45.9303 13.2357 45.6113 13.7109C45.2923 14.1797 44.8952 14.5443 44.4199 14.8047C43.9512 15.0651 43.3913 15.1953 42.7402 15.1953C42.0892 15.1953 41.5 15.0618 40.9727 14.7949C40.4518 14.528 40.0059 14.1536 39.6348 13.6719C39.2637 13.1901 38.9772 12.6237 38.7754 11.9727C38.5801 11.3216 38.4824 10.612 38.4824 9.84375ZM41.2949 9.63867V9.84375C41.2949 10.2799 41.3372 10.6868 41.4219 11.0645C41.5065 11.4421 41.6367 11.7773 41.8125 12.0703C41.9948 12.3568 42.2194 12.5814 42.4863 12.7441C42.7598 12.9004 43.082 12.9785 43.4531 12.9785C43.9674 12.9785 44.3874 12.8711 44.7129 12.6562C45.0384 12.4349 45.2826 12.1322 45.4453 11.748C45.6081 11.3639 45.7025 10.9212 45.7285 10.4199V9.14062C45.7155 8.73047 45.6602 8.36263 45.5625 8.03711C45.4648 7.70508 45.3281 7.42188 45.1523 7.1875C44.9766 6.95312 44.7487 6.77083 44.4688 6.64062C44.1888 6.51042 43.8568 6.44531 43.4727 6.44531C43.1016 6.44531 42.7793 6.52995 42.5059 6.69922C42.2389 6.86198 42.0143 7.08659 41.832 7.37305C41.6562 7.65951 41.5228 7.99805 41.4316 8.38867C41.3405 8.77279 41.2949 9.18945 41.2949 9.63867ZM49.8789 9.82422V9.61914C49.8789 8.8444 49.9896 8.13151 50.2109 7.48047C50.4323 6.82292 50.7546 6.25326 51.1777 5.77148C51.6009 5.28971 52.1217 4.91536 52.7402 4.64844C53.3587 4.375 54.0684 4.23828 54.8691 4.23828C55.6699 4.23828 56.3828 4.375 57.0078 4.64844C57.6328 4.91536 58.1569 5.28971 58.5801 5.77148C59.0098 6.25326 59.3353 6.82292 59.5566 7.48047C59.778 8.13151 59.8887 8.8444 59.8887 9.61914V9.82422C59.8887 10.5924 59.778 11.3053 59.5566 11.9629C59.3353 12.6139 59.0098 13.1836 58.5801 13.6719C58.1569 14.1536 57.6361 14.528 57.0176 14.7949C56.3991 15.0618 55.6895 15.1953 54.8887 15.1953C54.0879 15.1953 53.375 15.0618 52.75 14.7949C52.1315 14.528 51.6074 14.1536 51.1777 13.6719C50.7546 13.1836 50.4323 12.6139 50.2109 11.9629C49.9896 11.3053 49.8789 10.5924 49.8789 9.82422ZM52.6914 9.61914V9.82422C52.6914 10.2669 52.7305 10.6803 52.8086 11.0645C52.8867 11.4486 53.0104 11.7871 53.1797 12.0801C53.3555 12.3665 53.5833 12.5911 53.8633 12.7539C54.1432 12.9167 54.485 12.998 54.8887 12.998C55.2793 12.998 55.6146 12.9167 55.8945 12.7539C56.1745 12.5911 56.3991 12.3665 56.5684 12.0801C56.7376 11.7871 56.8613 11.4486 56.9395 11.0645C57.0241 10.6803 57.0664 10.2669 57.0664 9.82422V9.61914C57.0664 9.18945 57.0241 8.78581 56.9395 8.4082C56.8613 8.02409 56.7344 7.68555 56.5586 7.39258C56.3893 7.0931 56.1647 6.85872 55.8848 6.68945C55.6048 6.52018 55.2663 6.43555 54.8691 6.43555C54.472 6.43555 54.1335 6.52018 53.8535 6.68945C53.5801 6.85872 53.3555 7.0931 53.1797 7.39258C53.0104 7.68555 52.8867 8.02409 52.8086 8.4082C52.7305 8.78581 52.6914 9.18945 52.6914 9.61914Z" fill="#EEEEF2"/>
<path d="M66.7344 13.6426C66.7344 13.2259 66.8776 12.8776 67.1641 12.5977C67.457 12.3177 67.8444 12.1777 68.3262 12.1777C68.8079 12.1777 69.1921 12.3177 69.4785 12.5977C69.7715 12.8776 69.918 13.2259 69.918 13.6426C69.918 14.0592 69.7715 14.4076 69.4785 14.6875C69.1921 14.9674 68.8079 15.1074 68.3262 15.1074C67.8444 15.1074 67.457 14.9674 67.1641 14.6875C66.8776 14.4076 66.7344 14.0592 66.7344 13.6426Z" fill="#D53F8C"/>
</svg>
