<svg width="97" height="20" viewBox="0 0 97 20" fill="none" xmlns="http://www.w3.org/2000/svg">
<g filter="url(#filter0_b_511_11)">
<path d="M7.16797 11.2598C7.16797 11.0059 7.14518 10.7747 7.09961 10.5664C7.05404 10.3581 6.95638 10.166 6.80664 9.99023C6.66341 9.81445 6.45182 9.63867 6.17188 9.46289C5.89844 9.28711 5.54036 9.10482 5.09766 8.91602C4.57031 8.69466 4.05924 8.46029 3.56445 8.21289C3.06966 7.95898 2.6237 7.66602 2.22656 7.33398C1.82943 7.00195 1.51367 6.61133 1.2793 6.16211C1.05143 5.70638 0.9375 5.17253 0.9375 4.56055C0.9375 3.96159 1.04492 3.41797 1.25977 2.92969C1.48112 2.44141 1.79362 2.02474 2.19727 1.67969C2.60091 1.32812 3.07292 1.05794 3.61328 0.869141C4.16016 0.680339 4.76888 0.585938 5.43945 0.585938C6.35091 0.585938 7.13867 0.77474 7.80273 1.15234C8.47331 1.52995 8.99089 2.04753 9.35547 2.70508C9.72656 3.36263 9.91211 4.11784 9.91211 4.9707H7.06055C7.06055 4.56706 7.00195 4.21224 6.88477 3.90625C6.77409 3.59375 6.59505 3.34961 6.34766 3.17383C6.10026 2.99805 5.78125 2.91016 5.39062 2.91016C5.02604 2.91016 4.72331 2.98503 4.48242 3.13477C4.24805 3.27799 4.07227 3.47656 3.95508 3.73047C3.8444 3.97786 3.78906 4.25781 3.78906 4.57031C3.78906 4.80469 3.8444 5.01628 3.95508 5.20508C4.07227 5.38737 4.23177 5.55339 4.43359 5.70312C4.63542 5.84635 4.87305 5.98633 5.14648 6.12305C5.42643 6.25977 5.73242 6.39323 6.06445 6.52344C6.70898 6.77734 7.27865 7.05729 7.77344 7.36328C8.26823 7.66276 8.68164 8.0013 9.01367 8.37891C9.3457 8.75 9.59635 9.16992 9.76562 9.63867C9.9349 10.1074 10.0195 10.6413 10.0195 11.2402C10.0195 11.8327 9.91536 12.373 9.70703 12.8613C9.50521 13.3431 9.20898 13.7598 8.81836 14.1113C8.42773 14.4564 7.95573 14.7233 7.40234 14.9121C6.85547 15.1009 6.24349 15.1953 5.56641 15.1953C4.90885 15.1953 4.28711 15.1042 3.70117 14.9219C3.11523 14.7331 2.59766 14.4499 2.14844 14.0723C1.70573 13.6882 1.35742 13.2031 1.10352 12.6172C0.849609 12.0247 0.722656 11.3249 0.722656 10.5176H3.58398C3.58398 10.9473 3.6263 11.3151 3.71094 11.6211C3.79557 11.9206 3.92578 12.1615 4.10156 12.3438C4.27734 12.5195 4.49219 12.653 4.74609 12.7441C5.00651 12.8288 5.30273 12.8711 5.63477 12.8711C6.01237 12.8711 6.31185 12.7995 6.5332 12.6562C6.76107 12.513 6.92383 12.321 7.02148 12.0801C7.11914 11.8392 7.16797 11.5658 7.16797 11.2598ZM14.5508 6.46484V19.0625H11.8262V4.43359H14.3457L14.5508 6.46484ZM20.0391 9.35547V10.0586C20.0391 10.8854 19.9674 11.6178 19.8242 12.2559C19.681 12.8874 19.4661 13.4245 19.1797 13.8672C18.8997 14.3034 18.5482 14.6354 18.125 14.8633C17.7018 15.0846 17.207 15.1953 16.6406 15.1953C16.1133 15.1953 15.6576 15.0716 15.2734 14.8242C14.8958 14.5703 14.5768 14.222 14.3164 13.7793C14.056 13.3366 13.8477 12.819 13.6914 12.2266C13.5352 11.6341 13.4147 10.9993 13.3301 10.3223V9.22852C13.4082 8.50586 13.5221 7.8418 13.6719 7.23633C13.8216 6.62435 14.0267 6.09375 14.2871 5.64453C14.554 5.19531 14.8763 4.85026 15.2539 4.60938C15.638 4.36198 16.0938 4.23828 16.6211 4.23828C17.194 4.23828 17.6921 4.34245 18.1152 4.55078C18.5449 4.75911 18.8997 5.07487 19.1797 5.49805C19.4661 5.91471 19.681 6.44531 19.8242 7.08984C19.9674 7.73438 20.0391 8.48958 20.0391 9.35547ZM17.3047 10.0586V9.35547C17.3047 8.84766 17.2754 8.41471 17.2168 8.05664C17.1647 7.69857 17.0801 7.4056 16.9629 7.17773C16.8457 6.94987 16.6927 6.78385 16.5039 6.67969C16.3151 6.57552 16.084 6.52344 15.8105 6.52344C15.5436 6.52344 15.3092 6.57552 15.1074 6.67969C14.9121 6.78385 14.7526 6.93685 14.6289 7.13867C14.5052 7.33398 14.4108 7.57487 14.3457 7.86133C14.2806 8.14128 14.2448 8.46029 14.2383 8.81836V10.7324C14.2513 11.1556 14.3066 11.5299 14.4043 11.8555C14.5085 12.181 14.6745 12.4414 14.9023 12.6367C15.1302 12.8255 15.4395 12.9199 15.8301 12.9199C16.11 12.9199 16.3411 12.8613 16.5234 12.7441C16.7122 12.627 16.8652 12.4512 16.9824 12.2168C17.0996 11.9824 17.181 11.6862 17.2266 11.3281C17.2786 10.9701 17.3047 10.5469 17.3047 10.0586ZM26.377 12.5684V7.68555C26.377 7.36654 26.3379 7.11263 26.2598 6.92383C26.1882 6.73503 26.0775 6.59831 25.9277 6.51367C25.7845 6.42253 25.6087 6.37695 25.4004 6.37695C25.166 6.37695 24.9707 6.42578 24.8145 6.52344C24.6582 6.62109 24.541 6.76107 24.4629 6.94336C24.3913 7.12565 24.3555 7.34375 24.3555 7.59766H21.6113C21.6113 7.14193 21.6992 6.71224 21.875 6.30859C22.0508 5.89844 22.3079 5.54036 22.6465 5.23438C22.9915 4.92188 23.4017 4.67773 23.877 4.50195C24.3522 4.32617 24.8861 4.23828 25.4785 4.23828C26.1816 4.23828 26.8066 4.35872 27.3535 4.59961C27.9004 4.83398 28.3333 5.20833 28.6523 5.72266C28.9714 6.23698 29.1309 6.9043 29.1309 7.72461V12.4316C29.1309 13.0241 29.1602 13.5059 29.2188 13.877C29.2839 14.248 29.3783 14.5671 29.502 14.834V15H26.748C26.6243 14.707 26.5299 14.3424 26.4648 13.9062C26.4062 13.4635 26.377 13.0176 26.377 12.5684ZM26.709 8.54492L26.7188 10.1855H25.7129C25.4525 10.1855 25.2246 10.2279 25.0293 10.3125C24.8405 10.3971 24.681 10.5176 24.5508 10.6738C24.4206 10.8236 24.3229 10.9993 24.2578 11.2012C24.1992 11.403 24.1699 11.6178 24.1699 11.8457C24.1699 12.0996 24.2057 12.3145 24.2773 12.4902C24.349 12.666 24.4564 12.7995 24.5996 12.8906C24.7428 12.9818 24.9121 13.0273 25.1074 13.0273C25.4069 13.0273 25.6673 12.9655 25.8887 12.8418C26.11 12.7181 26.2728 12.5684 26.377 12.3926C26.4876 12.2168 26.5234 12.054 26.4844 11.9043L27.1094 12.9688C27.0312 13.2096 26.9238 13.4603 26.7871 13.7207C26.6569 13.9811 26.4909 14.222 26.2891 14.4434C26.0872 14.6647 25.8366 14.847 25.5371 14.9902C25.2441 15.127 24.8958 15.1953 24.4922 15.1953C23.9258 15.1953 23.4082 15.0651 22.9395 14.8047C22.4707 14.5443 22.0996 14.1797 21.8262 13.7109C21.5592 13.2422 21.4258 12.6855 21.4258 12.041C21.4258 11.5072 21.5104 11.0254 21.6797 10.5957C21.8555 10.1595 22.1159 9.79167 22.4609 9.49219C22.806 9.1862 23.2422 8.95182 23.7695 8.78906C24.2969 8.6263 24.9154 8.54492 25.625 8.54492H26.709ZM34.9707 12.9199C35.2246 12.9199 35.4427 12.8678 35.625 12.7637C35.8138 12.6595 35.957 12.4902 36.0547 12.2559C36.1523 12.0215 36.2044 11.7188 36.2109 11.3477H38.7793C38.7793 12.1419 38.61 12.8288 38.2715 13.4082C37.9395 13.9811 37.4902 14.4238 36.9238 14.7363C36.3639 15.0423 35.7292 15.1953 35.0195 15.1953C34.3099 15.1953 33.6914 15.0814 33.1641 14.8535C32.6367 14.6257 32.2005 14.2936 31.8555 13.8574C31.5169 13.4212 31.2598 12.8906 31.084 12.2656C30.9147 11.6341 30.8301 10.9115 30.8301 10.0977V9.32617C30.8301 8.52539 30.9147 7.80924 31.084 7.17773C31.2598 6.54622 31.5169 6.01237 31.8555 5.57617C32.2005 5.13997 32.6335 4.80794 33.1543 4.58008C33.6816 4.35221 34.3001 4.23828 35.0098 4.23828C35.7715 4.23828 36.4323 4.39779 36.9922 4.7168C37.5521 5.0293 37.9883 5.49154 38.3008 6.10352C38.6198 6.71549 38.7793 7.4707 38.7793 8.36914H36.2109C36.2044 7.96549 36.1556 7.63021 36.0645 7.36328C35.9798 7.08984 35.8464 6.88151 35.6641 6.73828C35.4883 6.58854 35.2539 6.51367 34.9609 6.51367C34.6549 6.51367 34.4076 6.57878 34.2188 6.70898C34.0365 6.83268 33.8965 7.01497 33.7988 7.25586C33.7077 7.49023 33.6458 7.7832 33.6133 8.13477C33.5807 8.48633 33.5645 8.88346 33.5645 9.32617V10.0977C33.5645 10.5729 33.5775 10.9863 33.6035 11.3379C33.6361 11.6829 33.6979 11.9759 33.7891 12.2168C33.8867 12.4512 34.0267 12.627 34.209 12.7441C34.3978 12.8613 34.6517 12.9199 34.9707 12.9199ZM44.6094 15.1953C43.8867 15.1953 43.2454 15.0846 42.6855 14.8633C42.1322 14.6419 41.6634 14.3229 41.2793 13.9062C40.8952 13.4831 40.6022 12.972 40.4004 12.373C40.1986 11.7741 40.0977 11.0905 40.0977 10.3223V9.45312C40.0977 8.59375 40.1953 7.8418 40.3906 7.19727C40.5859 6.54622 40.8626 5.99935 41.2207 5.55664C41.5788 5.11393 42.0182 4.78516 42.5391 4.57031C43.0664 4.34896 43.6621 4.23828 44.3262 4.23828C44.9902 4.23828 45.5729 4.34896 46.0742 4.57031C46.582 4.78516 47.002 5.11068 47.334 5.54688C47.666 5.97656 47.9167 6.51042 48.0859 7.14844C48.2552 7.78646 48.3398 8.52865 48.3398 9.375V10.625H41.2598V8.70117H45.6543V8.45703C45.6543 8.02734 45.6087 7.66927 45.5176 7.38281C45.4264 7.08984 45.2832 6.87174 45.0879 6.72852C44.8926 6.58529 44.6322 6.51367 44.3066 6.51367C44.0332 6.51367 43.8021 6.56901 43.6133 6.67969C43.4245 6.79036 43.2747 6.96289 43.1641 7.19727C43.0534 7.43164 42.972 7.73763 42.9199 8.11523C42.8678 8.48633 42.8418 8.93229 42.8418 9.45312V10.3223C42.8418 10.8105 42.8841 11.2207 42.9688 11.5527C43.0534 11.8783 43.1771 12.1452 43.3398 12.3535C43.5091 12.5553 43.7142 12.7018 43.9551 12.793C44.196 12.8776 44.4759 12.9199 44.7949 12.9199C45.2767 12.9199 45.7096 12.8353 46.0938 12.666C46.4844 12.4902 46.8164 12.2526 47.0898 11.9531L48.1836 13.6133C47.9948 13.8607 47.7344 14.1081 47.4023 14.3555C47.0703 14.6029 46.6732 14.8047 46.2109 14.9609C45.7487 15.1172 45.2148 15.1953 44.6094 15.1953ZM52.2363 0.78125V15H50.4395V0.78125H52.2363ZM57.0312 7.17773V8.7207H51.8945V7.17773H57.0312ZM57.8418 0.78125V2.32422H51.8945V0.78125H57.8418ZM59.2578 10.2246V9.21875C59.2578 8.39844 59.362 7.67904 59.5703 7.06055C59.7786 6.43555 60.0684 5.91471 60.4395 5.49805C60.8105 5.08138 61.2435 4.76888 61.7383 4.56055C62.2331 4.3457 62.7637 4.23828 63.3301 4.23828C63.9095 4.23828 64.4466 4.3457 64.9414 4.56055C65.4362 4.76888 65.8691 5.08138 66.2402 5.49805C66.6178 5.91471 66.9108 6.43555 67.1191 7.06055C67.3275 7.67904 67.4316 8.39844 67.4316 9.21875V10.2246C67.4316 11.0449 67.3275 11.7676 67.1191 12.3926C66.9108 13.0111 66.6211 13.5286 66.25 13.9453C65.8789 14.362 65.446 14.6745 64.9512 14.8828C64.4564 15.0911 63.9225 15.1953 63.3496 15.1953C62.7767 15.1953 62.2428 15.0911 61.748 14.8828C61.2533 14.6745 60.8171 14.362 60.4395 13.9453C60.0684 13.5286 59.7786 13.0111 59.5703 12.3926C59.362 11.7676 59.2578 11.0449 59.2578 10.2246ZM60.9863 9.21875V10.2246C60.9863 10.804 61.0449 11.3118 61.1621 11.748C61.2793 12.1842 61.4453 12.5488 61.6602 12.8418C61.875 13.1348 62.1257 13.3561 62.4121 13.5059C62.6986 13.6491 63.0111 13.7207 63.3496 13.7207C63.7402 13.7207 64.082 13.6491 64.375 13.5059C64.6745 13.3561 64.9219 13.1348 65.1172 12.8418C65.3125 12.5488 65.459 12.1842 65.5566 11.748C65.6543 11.3118 65.7031 10.804 65.7031 10.2246V9.21875C65.7031 8.63932 65.6445 8.13477 65.5273 7.70508C65.4102 7.26888 65.2441 6.9043 65.0293 6.61133C64.8145 6.31185 64.5605 6.09049 64.2676 5.94727C63.9811 5.79753 63.6686 5.72266 63.3301 5.72266C62.998 5.72266 62.6888 5.79753 62.4023 5.94727C62.1159 6.09049 61.8652 6.31185 61.6504 6.61133C61.4421 6.9043 61.2793 7.26888 61.1621 7.70508C61.0449 8.13477 60.9863 8.63932 60.9863 9.21875ZM75 12.5586V4.43359H76.7285V15H75.0879L75 12.5586ZM75.3223 10.332L76.0059 10.3125C76.0059 11.0156 75.944 11.6667 75.8203 12.2656C75.7031 12.8581 75.5078 13.3724 75.2344 13.8086C74.9674 14.2448 74.6126 14.5866 74.1699 14.834C73.7272 15.0749 73.1836 15.1953 72.5391 15.1953C72.1029 15.1953 71.7057 15.1204 71.3477 14.9707C70.9961 14.821 70.6901 14.5898 70.4297 14.2773C70.1758 13.9648 69.9772 13.5579 69.834 13.0566C69.6973 12.5553 69.6289 11.9531 69.6289 11.25V4.43359H71.3477V11.2695C71.3477 11.7448 71.39 12.1387 71.4746 12.4512C71.5592 12.7572 71.6732 13.0013 71.8164 13.1836C71.9596 13.3594 72.1191 13.4831 72.2949 13.5547C72.4707 13.6263 72.6497 13.6621 72.832 13.6621C73.444 13.6621 73.9323 13.5156 74.2969 13.2227C74.6615 12.9232 74.9219 12.5228 75.0781 12.0215C75.2409 11.5137 75.3223 10.9505 75.3223 10.332ZM81.0547 6.68945V15H79.3262V4.43359H80.957L81.0547 6.68945ZM80.6348 9.31641L79.9316 9.28711C79.9251 8.56445 80.0065 7.89714 80.1758 7.28516C80.3516 6.66667 80.599 6.12956 80.918 5.67383C81.2435 5.2181 81.6309 4.86654 82.0801 4.61914C82.5293 4.36523 83.0273 4.23828 83.5742 4.23828C84.0039 4.23828 84.3945 4.3099 84.7461 4.45312C85.0977 4.58984 85.3971 4.8112 85.6445 5.11719C85.8919 5.42318 86.0807 5.82031 86.2109 6.30859C86.3477 6.79036 86.416 7.37956 86.416 8.07617V15H84.6875V8.05664C84.6875 7.50326 84.6257 7.06055 84.502 6.72852C84.3848 6.38997 84.2025 6.14583 83.9551 5.99609C83.7142 5.83984 83.4082 5.76172 83.0371 5.76172C82.6986 5.76172 82.3828 5.85612 82.0898 6.04492C81.7969 6.23372 81.5397 6.49414 81.3184 6.82617C81.1035 7.1582 80.9342 7.53906 80.8105 7.96875C80.6934 8.39193 80.6348 8.84115 80.6348 9.31641ZM94.5508 12.9492V0H96.2695V15H94.6973L94.5508 12.9492ZM88.6426 10.2246V9.23828C88.6426 8.36589 88.7272 7.61719 88.8965 6.99219C89.0658 6.36068 89.3066 5.8431 89.6191 5.43945C89.9316 5.0293 90.306 4.72656 90.7422 4.53125C91.1784 4.33594 91.6602 4.23828 92.1875 4.23828C92.7344 4.23828 93.2031 4.34896 93.5938 4.57031C93.9909 4.79167 94.3229 5.11393 94.5898 5.53711C94.8568 5.95378 95.0651 6.46159 95.2148 7.06055C95.3711 7.65299 95.4753 8.32357 95.5273 9.07227V10.3906C95.4688 11.1328 95.3613 11.8001 95.2051 12.3926C95.0553 12.985 94.847 13.4896 94.5801 13.9062C94.3132 14.3229 93.9811 14.6419 93.584 14.8633C93.1868 15.0846 92.7148 15.1953 92.168 15.1953C91.6471 15.1953 91.1719 15.0944 90.7422 14.8926C90.3125 14.6842 89.9382 14.375 89.6191 13.9648C89.3066 13.5482 89.0658 13.0306 88.8965 12.4121C88.7272 11.7871 88.6426 11.0579 88.6426 10.2246ZM90.3711 9.23828V10.2246C90.3711 10.8105 90.4134 11.3216 90.498 11.7578C90.5827 12.1875 90.7161 12.5456 90.8984 12.832C91.0807 13.112 91.3118 13.3203 91.5918 13.457C91.8783 13.5938 92.2201 13.6621 92.6172 13.6621C93.099 13.6621 93.4928 13.5449 93.7988 13.3105C94.1048 13.0762 94.349 12.7669 94.5312 12.3828C94.7201 11.9922 94.8698 11.5723 94.9805 11.123V8.34961C94.9154 8.01758 94.821 7.69857 94.6973 7.39258C94.5736 7.08008 94.4173 6.80339 94.2285 6.5625C94.0462 6.3151 93.8216 6.11979 93.5547 5.97656C93.2943 5.83333 92.9883 5.76172 92.6367 5.76172C92.2396 5.76172 91.8945 5.83333 91.6016 5.97656C91.3151 6.11979 91.0807 6.33464 90.8984 6.62109C90.7227 6.90755 90.5892 7.26888 90.498 7.70508C90.4134 8.14128 90.3711 8.65234 90.3711 9.23828Z" fill="url(#paint0_linear_511_11)" style="mix-blend-mode:screen"/>
</g>
<defs>
<filter id="filter0_b_511_11" x="-3.27734" y="-4" width="103.547" height="27.0625" filterUnits="userSpaceOnUse" color-interpolation-filters="sRGB">
<feFlood flood-opacity="0" result="BackgroundImageFix"/>
<feGaussianBlur in="BackgroundImageFix" stdDeviation="2"/>
<feComposite in2="SourceAlpha" operator="in" result="effect1_backgroundBlur_511_11"/>
<feBlend mode="normal" in="SourceGraphic" in2="effect1_backgroundBlur_511_11" result="shape"/>
</filter>
<linearGradient id="paint0_linear_511_11" x1="-3" y1="3.21739" x2="106.325" y2="8.51661" gradientUnits="userSpaceOnUse">
<stop offset="0.421875" stop-color="#D7DBF3" stop-opacity="0.88"/>
<stop offset="0.505208" stop-color="#417CD5"/>
<stop offset="1" stop-color="#001AA5"/>
</linearGradient>
</defs>
</svg>
