<svg width="48" height="48" viewBox="0 0 48 48" fill="none" xmlns="http://www.w3.org/2000/svg">
<path d="M0 24V48H24H48V24V-1.3113e-06H24H0V24ZM40.2258 22.616C41.4037 23.2049 42.9939 24.7951 42.9939 25.3546C42.9939 25.5018 42.2577 26.0908 41.3742 26.6798L39.7252 27.7693L38.9301 27.0037C37.1926 25.3252 34.7485 25.7963 34.7485 27.7988C34.7485 29.0356 35.1607 29.389 38.6061 31.0086C42.9644 33.011 44.4957 34.8957 44.4368 38.135C44.4074 40.6086 43.0528 42.611 40.638 43.7006C39.6368 44.1423 38.7239 44.2896 36.7804 44.2896C34.6307 44.2896 34.0123 44.1718 32.5988 43.465C30.8908 42.6405 28.7706 40.5202 28.9178 39.8135C28.9767 39.6074 29.7718 39.0184 30.6847 38.4883L32.3632 37.5755L33.3939 38.6356C34.5718 39.8429 36.0442 40.373 37.546 40.1374C39.6074 39.8135 40.4614 37.8405 39.1067 36.6037C38.7239 36.2798 37.3693 35.5141 36.0736 34.9252C32.8049 33.4233 31.7153 32.5988 30.8025 30.9497C29.0061 27.5926 30.5669 23.5583 34.2184 22.1742C35.6319 21.6442 38.7828 21.8798 40.2258 22.616ZM27.681 24.1472V26.2086H24.5301H21.3497V35.1018V44.0245L19.0822 44.1129L16.7853 44.2012V35.1902V26.2086H13.546H10.3067V24.3534C10.3067 23.3227 10.3951 22.3804 10.5129 22.292C10.6012 22.1742 14.5178 22.0859 19.2 22.0859H27.681V24.1472Z" fill="#00DF5E"/>
</svg>
