<svg width="33" height="33" viewBox="0 0 33 33" fill="none" xmlns="http://www.w3.org/2000/svg">
<path d="M1.96117 0.23637C1.76493 0.307705 1.40814 0.593047 1.15839 0.860555L0.712402 1.34207V16.1263V30.9106L1.30111 31.4813L1.87197 32.0698H16.6788H31.4856L32.0564 31.4813L32.6451 30.9106L32.6987 16.3582C32.7343 3.3573 32.7165 1.75225 32.4489 1.21723C31.878 0.00452948 32.5559 0.0580311 16.6431 0.075865C8.77587 0.075865 2.1574 0.1472 1.96117 0.23637ZM9.48945 4.35599C10.5241 4.85534 11.1485 5.90754 11.1485 7.13808C11.1485 10.0807 7.13463 11.2399 5.61827 8.74312C4.58358 7.06674 5.17228 5.12285 6.95623 4.32033C7.88389 3.89231 8.54395 3.89231 9.48945 4.35599ZM10.7561 19.6218L10.7917 27.1655H8.205H5.61827V19.5861V11.9889L8.16932 12.0424L10.7025 12.0959L10.7561 19.6218ZM17.7491 13.2908V14.5926L18.0524 13.9863C18.427 13.2194 19.3547 12.6309 20.6927 12.2742C23.4578 11.5609 25.8483 12.4526 27.0971 14.6818L27.6501 15.6627L27.7036 21.4052L27.7571 27.1655H25.1882H22.6193L22.6015 21.9759C22.5837 16.8932 22.5837 16.7684 22.1912 16.3582C21.4954 15.6092 19.658 15.4843 18.873 16.1263C18.7303 16.2512 18.4449 16.6792 18.2308 17.0715C17.8562 17.7671 17.8383 18.0702 17.7848 22.4752L17.7313 27.1655H15.1446H12.5757V19.5861V12.0067H15.1624H17.7491V13.2908Z" fill="#00DF5E"/>
</svg>
