<svg width="32" height="32" viewBox="0 0 32 32" fill="none" xmlns="http://www.w3.org/2000/svg">
<path d="M14.7879 0.030649C9.38793 0.670649 5.18793 3.28754 2.6165 7.62532C-0.183504 12.3186 -0.297789 18.1782 2.30221 22.9853L2.64507 23.6253L1.28792 27.6644C0.545068 29.8831 -0.0406465 31.732 0.0022106 31.7746C0.030782 31.8173 1.63078 31.348 3.53078 30.7364C5.44507 30.1391 7.34507 29.5418 7.74507 29.428L8.50221 29.2004L9.60221 29.7124C13.7308 31.5755 18.6451 31.5329 22.7165 29.6129C24.5594 28.7453 25.9879 27.7355 27.3308 26.3418C28.6879 24.9338 29.4879 23.796 30.3022 22.0751C33.0451 16.2724 31.8165 9.23243 27.2594 4.65287C24.9736 2.37732 22.1736 0.86976 19.1451 0.300871C18.0451 0.0875378 15.5879 -0.0689066 14.7879 0.030649ZM18.8594 2.87509C19.3308 2.97465 20.0736 3.18798 20.5022 3.3302C23.9879 4.52487 27.0308 7.52576 28.3594 11.0671C29.4879 14.0964 29.3879 17.7373 28.1022 20.6386C26.6736 23.8955 23.8736 26.5409 20.6451 27.7213C18.9308 28.3329 18.1736 28.4466 16.0022 28.4466C14.1022 28.4324 13.7165 28.3898 12.5879 28.0484C11.4736 27.7213 10.0022 27.0813 9.13078 26.5551C8.90221 26.4129 8.43078 26.5266 6.43078 27.1666C5.10221 27.5933 3.98793 27.9204 3.95935 27.892C3.9165 27.8635 4.25935 26.7826 4.70221 25.5026L5.50221 23.156L5.00221 22.4022C2.78793 19.0458 2.4165 14.324 4.07364 10.4413C6.48793 4.80932 12.8879 1.52398 18.8594 2.87509Z" fill="#00DF5E"/>
<path d="M10.2879 8.03773C9.84509 8.22262 8.94509 9.28929 8.65937 9.94351C7.87366 11.7924 8.27366 13.6413 10.0308 16.244C12.0165 19.1737 13.7165 20.7524 16.1451 21.9186C19.6594 23.5968 21.1165 23.7106 22.9879 22.4306C23.6879 21.9471 24.0451 21.3071 24.1737 20.2973C24.2451 19.6146 24.2451 19.5862 23.7737 19.3017C22.9022 18.7613 20.5308 17.5808 20.3308 17.5808C20.2308 17.5808 19.7451 18.036 19.2451 18.5764C18.7451 19.1311 18.2451 19.572 18.1165 19.572C17.7451 19.572 16.0165 18.5906 15.1308 17.8937C14.1879 17.1257 13.1594 15.9168 12.6022 14.8928L12.2165 14.196L12.9308 13.3142C13.3308 12.8306 13.6451 12.2902 13.6451 12.1053C13.6451 11.8066 12.5594 8.76306 12.2879 8.30795C12.1165 8.03773 10.7308 7.85284 10.2879 8.03773Z" fill="#00DF5E"/>
</svg>
