<svg width="32" height="32" viewBox="0 0 32 32" fill="none" xmlns="http://www.w3.org/2000/svg">
<path d="M13.5213 0.0407368C9.79622 0.781373 6.91163 2.3601 4.42821 5.03029C2.15492 7.48608 0.798591 10.2147 0.225493 13.5866C-0.748772 19.3168 1.48631 25.4563 5.91826 29.1594C6.58687 29.7052 8.00051 30.6017 9.0894 31.1475C10.7896 32.005 11.1143 32.1025 11.5346 31.9271C11.974 31.7127 11.9931 31.6152 11.9931 29.9585V28.2239L10.9042 28.3213C8.72643 28.5163 7.40831 27.7756 6.45315 25.8461C6.10929 25.1639 5.53619 24.4233 5.02041 23.9945C4.06524 23.1759 3.98883 23.0005 4.54282 22.825C5.28785 22.5912 6.22391 23.1174 7.351 24.4038C7.9432 25.1054 8.66912 25.8071 8.95567 25.963C9.96814 26.4892 11.8976 26.2164 12.1077 25.5147C12.165 25.3198 12.3369 24.8715 12.4898 24.5207C12.6235 24.1894 12.7572 23.8386 12.7572 23.7606C12.7763 23.6826 12.2414 23.5072 11.5919 23.3708C7.79038 22.5912 5.86095 20.0574 5.84185 15.8085C5.82274 13.8984 6.12839 12.7875 6.91163 11.7155C7.3319 11.1698 7.351 11.0333 7.17907 10.1368C6.98804 9.14277 7.19818 7.38863 7.58024 6.76493C7.82858 6.37513 9.26132 6.76493 10.8278 7.642C12.0122 8.30468 12.0504 8.32417 13.1202 8.09028C14.4574 7.79793 17.705 7.79793 18.9467 8.09028C19.8636 8.30468 19.94 8.30468 21.4301 7.54455C22.2897 7.11576 23.3022 6.70646 23.6843 6.6285C24.3338 6.51156 24.4293 6.55054 24.6012 7.0378C24.926 7.91487 25.0406 9.53258 24.8114 10.3512C24.6394 11.0138 24.6585 11.1698 24.9833 11.5206C25.5373 12.1248 26.1104 13.5671 26.2441 14.756C26.3969 16.1788 26.034 18.4982 25.4418 19.7456C24.5821 21.5777 22.5381 23.02 20.2839 23.4098C19.0613 23.6242 19.0613 23.6047 19.558 24.5987C19.9782 25.4563 20.0164 25.7291 20.0164 28.6137C20.0164 31.6932 20.0164 31.6932 20.4749 31.9271C20.8952 32.1025 21.22 32.005 22.9201 31.1475C24.009 30.6017 25.4227 29.7052 26.0913 29.1594C32.4336 23.858 33.8854 14.2882 29.3961 7.31067C28.0207 5.18621 25.6519 2.9643 23.5314 1.83386C21.0289 0.508507 19.4625 0.0992081 16.4823 0.0212464C15.126 -0.0177345 13.7888 0.00175593 13.5213 0.0407368Z" fill="#00DF5E"/>
</svg>
