<svg width="33" height="33" viewBox="0 0 33 33" fill="none" xmlns="http://www.w3.org/2000/svg">
<path d="M5.77161 0.46419C4.54435 0.658129 2.96018 1.36507 2.21506 2.05324C2.01469 2.24093 1.98964 2.52245 2.1587 2.67885C2.22132 2.73516 3.26073 3.16683 4.46295 3.64855L6.64823 4.51189L6.89243 4.93105L7.13037 5.35021L6.46038 7.05187C6.09095 7.99028 5.76535 8.7723 5.74657 8.79732C5.72152 8.82235 4.71967 8.45324 3.51746 7.97152C2.30898 7.4898 1.2633 7.09566 1.19443 7.09566C1.11929 7.09566 0.994057 7.15197 0.912657 7.21453C0.768642 7.32714 0.76238 7.37093 0.768642 8.04659C0.774903 8.8724 0.893873 9.41042 1.20069 10.0798C1.73918 11.2497 2.60327 12.0755 3.76792 12.5385C3.97455 12.6198 4.14987 12.6949 4.1624 12.7011C4.16866 12.7074 4.14361 12.8388 4.09978 13.0014C4.02464 13.2767 4.0309 13.2955 4.18118 13.4519C4.33146 13.602 4.38155 13.6083 5.4961 13.6646C6.96757 13.7396 7.52484 13.871 8.49538 14.3527C9.2906 14.7594 9.8604 15.2098 11.0814 16.411L12.2586 17.5746L10.2862 19.5391L8.32006 21.5035L7.95063 21.4034C4.40033 20.4149 0.862565 23.1238 0.856303 26.8399C0.856303 27.697 1.0692 28.6042 1.3134 28.7731C1.38853 28.8231 1.50124 28.8669 1.57012 28.8669C1.65152 28.8669 2.35281 28.21 3.52372 27.0464L5.34583 25.2321L6.34767 25.4949C6.90495 25.6388 7.38709 25.7764 7.42466 25.8014C7.46849 25.8202 7.62503 26.3082 7.7753 26.8712L8.05081 27.8972L6.24123 29.7177C4.64453 31.3193 4.42538 31.557 4.42538 31.726C4.42538 31.8636 4.47547 31.9637 4.58818 32.0513C5.03901 32.4079 6.86112 32.5267 7.84418 32.264C9.74143 31.751 11.2004 30.3746 11.8265 28.4915C12.0144 27.9285 12.0269 27.8409 12.0269 26.9275C12.0332 26.183 12.0081 25.839 11.9142 25.4386L11.789 24.9193L13.7425 22.9674L15.6961 21.0155L21.1562 26.4646C27.1798 32.4704 26.873 32.2014 27.8498 32.3766C29.434 32.6581 31.0244 31.5821 31.3563 30.0118C31.5128 29.2548 31.3312 28.3289 30.9117 27.697C30.799 27.5344 28.3006 24.9881 25.364 22.0478L20.0166 16.6988L22.6402 14.0775L25.2575 11.4624L25.6708 11.5625C27.0734 11.9129 28.4259 11.7815 29.6281 11.1809C30.2229 10.8806 30.5548 10.6429 31.0307 10.1987C32.5209 8.77855 33.1158 6.6202 32.5647 4.64953C32.4395 4.2116 32.2704 4.05519 31.9949 4.12401C31.8822 4.14904 31.1935 4.78716 30.0288 5.94454L28.238 7.72753L27.2424 7.46477C26.6977 7.32088 26.2155 7.17073 26.178 7.1332C26.1091 7.07064 25.5894 5.2376 25.5894 5.06869C25.5894 5.03115 26.3971 4.19283 27.3864 3.20437C28.9706 1.62157 29.1772 1.39009 29.1772 1.21492C29.1772 0.939654 29.0583 0.852069 28.4947 0.695667C27.7997 0.51424 26.4597 0.514238 25.7647 0.701921C23.736 1.25246 22.1956 2.81649 21.6947 4.83095C21.5069 5.58169 21.5069 6.78286 21.701 7.50231L21.8325 8.0028L19.2026 10.6304L16.5728 13.2579L15.2954 11.9754C13.8928 10.5678 13.417 9.93593 13.06 9.00377C12.7219 8.12792 12.628 7.63994 12.5591 6.42C12.4652 4.71209 12.1772 3.72988 11.4759 2.75392C11.1628 2.316 10.5429 1.70915 10.1109 1.41512C9.6475 1.09606 8.82724 0.726947 8.27623 0.589313C7.70017 0.439166 6.37272 0.370348 5.77161 0.46419ZM7.75652 1.36507C9.24677 1.65285 10.474 2.55373 11.1315 3.855C11.4821 4.55568 11.6262 5.20632 11.6888 6.43877C11.7263 7.05813 11.7952 7.75881 11.8453 8.0028C12.1146 9.26653 12.6405 10.3363 13.5046 11.3874L13.874 11.8315L12.3274 13.3705L10.7808 14.9095L10.4991 14.6593C9.21546 13.5144 7.32447 12.7887 5.6276 12.7887C5.23312 12.7887 5.10789 12.7699 5.13293 12.7074C5.15172 12.6699 5.8217 10.987 6.61692 8.97875L8.07586 5.32519L7.70643 4.60573L7.337 3.88628L6.9613 3.72362C6.75467 3.62978 5.8718 3.27318 5.0077 2.93535C4.13735 2.59127 3.42353 2.29097 3.42353 2.2722C3.42353 2.20964 4.12483 1.85305 4.59444 1.67788C5.57124 1.30251 6.80477 1.18364 7.75652 1.36507ZM27.7934 1.45266C27.8811 1.49019 27.5743 1.82802 26.2782 3.12304C25.22 4.18032 24.6502 4.79342 24.6502 4.87474C24.6564 5.10622 25.389 7.74004 25.4767 7.82137C25.5581 7.90896 28.2443 8.65969 28.4572 8.65969C28.5135 8.65969 29.2962 7.92772 30.1979 7.02684L31.8321 5.394L31.876 5.5942C32.045 6.45754 31.7257 7.80886 31.1246 8.73476C29.9662 10.524 27.6557 11.3373 25.6708 10.6554C25.4767 10.5928 25.245 10.5365 25.1573 10.5365C25.0258 10.5365 24.4498 11.0808 22.2082 13.3205L19.4218 16.1045L18.3135 14.9971L17.1989 13.8835L19.9853 11.0996C22.1768 8.90993 22.7717 8.27807 22.7717 8.15294C22.7717 8.07161 22.7153 7.84014 22.6465 7.65246C21.726 5.01864 23.4417 2.04698 26.2093 1.49645C26.6476 1.40886 27.6181 1.38384 27.7934 1.45266ZM3.45484 8.87865C4.38781 9.24776 5.20807 9.57308 5.27695 9.5981C5.40844 9.65441 5.40218 9.67943 4.97013 10.7805L4.53183 11.9066L4.13735 11.7565C2.7786 11.2435 1.85815 10.0235 1.639 8.44698C1.60769 8.20299 1.61395 8.14669 1.68283 8.17797C1.72666 8.19674 2.52813 8.50954 3.45484 8.87865ZM30.3544 28.4603C30.5673 28.9232 30.5924 29.6552 30.4045 30.1494C30.2292 30.6186 29.7658 31.1191 29.29 31.3506C28.9831 31.5007 28.8642 31.5258 28.3758 31.5258C27.3426 31.5258 28.119 32.2202 19.284 23.3991C14.9698 19.0949 11.4383 15.5477 11.4383 15.5101C11.4383 15.4788 12.1208 14.7656 12.9536 13.9336L14.4751 12.4134L22.3396 20.2773C28.7202 26.6648 30.2354 28.2038 30.3544 28.4603ZM14.0055 19.3263L15.1013 20.4212L12.9912 22.5357C11.4133 24.106 10.8748 24.6816 10.8685 24.8004C10.8622 24.888 10.9374 25.2071 11.025 25.5199C11.2379 26.2143 11.2692 27.1965 11.1002 27.8972C10.9624 28.4853 10.5116 29.3737 10.1234 29.8491C9.5348 30.5561 8.60183 31.1566 7.71269 31.4006C7.29317 31.5195 6.15983 31.5946 5.89058 31.532C5.72152 31.4882 5.77787 31.4257 7.31821 29.8804C8.19483 28.9983 8.93369 28.2225 8.95247 28.1662C9.00883 28.0098 8.2637 25.2947 8.13221 25.157C8.03203 25.0569 5.43349 24.3062 5.17677 24.3C5.12667 24.3 4.35024 25.0319 3.45484 25.9265C2.55318 26.8212 1.8018 27.5344 1.77675 27.5156C1.69535 27.428 1.73292 26.2331 1.8331 25.7827C2.44047 23.0675 5.3333 21.4221 7.94437 22.3043C8.60183 22.5232 8.4265 22.6421 10.7495 20.3273C11.9017 19.1762 12.8597 18.2315 12.8785 18.2315C12.8972 18.2315 13.4044 18.7258 14.0055 19.3263Z" fill="#00DF5E"/>
<path d="M8.27002 8.27191C8.13226 8.34073 7.95694 8.47211 7.8818 8.55969C7.81292 8.65353 7.54994 9.23535 7.30574 9.86096C6.91126 10.8432 6.86117 11.0246 6.89248 11.2436C6.94883 11.5751 7.13668 11.8754 7.38714 12.0256C7.70022 12.2133 9.21551 12.7888 9.39709 12.7888C9.62877 12.7888 9.9982 12.6262 10.1986 12.4322C10.4052 12.232 11.2505 10.1362 11.2505 9.82968C11.2505 9.58569 11.0627 9.16653 10.8873 9.01013C10.6932 8.84122 9.13411 8.21561 8.80851 8.18432C8.6144 8.16556 8.4516 8.19058 8.27002 8.27191ZM9.52859 9.33545C9.93559 9.49811 10.2988 9.67953 10.3363 9.73584C10.4302 9.89224 9.64755 11.8441 9.47223 11.8879C9.30943 11.9255 7.87554 11.3562 7.78788 11.2185C7.73779 11.1435 7.81292 10.887 8.08217 10.2176C8.47039 9.24161 8.58309 9.03516 8.70206 9.03516C8.74589 9.03516 9.11532 9.17279 9.52859 9.33545Z" fill="#00DF5E"/>
<path d="M27.7993 27.7783C27.4424 27.9097 27.0041 28.3039 26.835 28.6605C26.5032 29.3424 26.7223 30.2558 27.3234 30.7125C27.6804 30.9815 28.0122 31.0753 28.5006 31.044C29.4085 30.9815 30.0472 30.3058 30.0535 29.4049C30.0597 28.2225 28.9014 27.3905 27.7993 27.7783ZM28.7573 28.6542C28.964 28.7543 29.2207 29.1609 29.2207 29.3862C29.2207 29.6114 29.0328 29.9304 28.8325 30.0556C28.3816 30.3308 27.8118 30.1682 27.6177 29.7052C27.4988 29.4237 27.505 29.2485 27.6428 28.9983C27.8557 28.6042 28.3316 28.454 28.7573 28.6542Z" fill="#00DF5E"/>
</svg>
